<?xml version="1.0" standalone="no"?>
<!DOCTYPE svg PUBLIC "-//W3C//DTD SVG 20010904//EN"
 "http://www.w3.org/TR/2001/REC-SVG-20010904/DTD/svg10.dtd">
<svg version="1.0" xmlns="http://www.w3.org/2000/svg"
 width="468.000000pt" height="454.000000pt" viewBox="0 0 468.000000 454.000000"
 preserveAspectRatio="xMidYMid meet">

<g transform="translate(0.000000,454.000000) scale(0.100000,-0.100000)"
fill="#000000" stroke="none">
<path d="M3287 3479 c-215 -17 -419 -95 -556 -212 -303 -258 -333 -689 -69
-972 151 -162 317 -252 678 -371 248 -82 366 -138 437 -210 166 -166 145 -421
-46 -543 -79 -51 -160 -72 -291 -78 -196 -8 -339 37 -449 142 -70 67 -108 141
-130 252 l-16 83 -224 0 -223 0 6 -67 c15 -147 53 -251 134 -370 50 -73 159
-179 236 -228 236 -151 583 -209 892 -150 414 79 664 344 664 705 0 172 -54
318 -172 463 -130 160 -312 264 -673 382 -305 100 -412 156 -493 257 -111 140
-68 366 90 470 93 62 173 83 318 82 102 0 136 -5 184 -22 165 -61 252 -166
293 -354 l16 -78 121 0 c67 0 165 3 218 7 l97 6 -5 61 c-24 265 -192 510 -434
635 -177 92 -375 128 -603 110z"/>
</g>
</svg>
